<svg width="22" height="22" viewBox="0 0 22 22" fill="none" xmlns="http://www.w3.org/2000/svg">
<path d="M21.1969 4.00088C22.0433 3.1708 22.0433 1.82275 21.1969 0.992676C20.3506 0.162598 18.9761 0.162598 18.1297 0.992676L11 7.9919L3.86357 0.999316C3.01722 0.169238 1.64274 0.169238 0.796387 0.999316C-0.0499675 1.82939 -0.0499675 3.17744 0.796387 4.00752L7.93285 11.0001L0.803158 17.9993C-0.0431965 18.8294 -0.0431965 20.1774 0.803158 21.0075C1.64951 21.8376 3.02399 21.8376 3.87035 21.0075L11 14.0083L18.1365 21.0009C18.9828 21.831 20.3573 21.831 21.2037 21.0009C22.05 20.1708 22.05 18.8228 21.2037 17.9927L14.0672 11.0001L21.1969 4.00088Z" fill="black"/>
</svg>
